G04 #@! TF.GenerationSoftware,KiCad,Pcbnew,(6.0.10-0)*
G04 #@! TF.CreationDate,2023-01-31T11:03:09+09:00*
G04 #@! TF.ProjectId,MEZ68030FPU,4d455a36-3830-4333-9046-50552e6b6963,A*
G04 #@! TF.SameCoordinates,PX5f5e100PY68e7780*
G04 #@! TF.FileFunction,Legend,Top*
G04 #@! TF.FilePolarity,Positive*
%FSLAX46Y46*%
G04 Gerber Fmt 4.6, Leading zero omitted, Abs format (unit mm)*
G04 Created by KiCad (PCBNEW (6.0.10-0)) date 2023-01-31 11:03:09*
%MOMM*%
%LPD*%
G01*
G04 APERTURE LIST*
%ADD10C,0.150000*%
%ADD11C,0.200000*%
%ADD12C,0.203200*%
%ADD13C,0.120000*%
%ADD14C,0.304800*%
%ADD15R,1.397000X1.397000*%
%ADD16C,1.397000*%
G04 APERTURE END LIST*
D10*
X55245000Y35560000D02*
X56515000Y35560000D01*
X50165000Y48260000D02*
X51435000Y48260000D01*
X47625000Y32385000D02*
X48895000Y32385000D01*
X45085000Y43180000D02*
X46355000Y43180000D01*
X75565000Y63500000D02*
X76835000Y63500000D01*
X70485000Y50800000D02*
X71755000Y50800000D01*
X73025000Y60960000D02*
X74295000Y60960000D01*
X70485000Y60960000D02*
X71755000Y60960000D01*
X50165000Y45720000D02*
X51435000Y45720000D01*
X50165000Y35560000D02*
X51435000Y35560000D01*
X70485000Y55880000D02*
X71755000Y55880000D01*
X55245000Y38100000D02*
X56515000Y38100000D01*
X75565000Y45720000D02*
X76835000Y45720000D01*
X67945000Y40640000D02*
X69215000Y40640000D01*
X67922798Y58446786D02*
X69192798Y58446786D01*
X75565000Y50800000D02*
X76835000Y50800000D01*
X50165000Y50800000D02*
X51435000Y50800000D01*
X52705000Y35560000D02*
X53975000Y35560000D01*
X55245000Y58420000D02*
X56515000Y58420000D01*
X50165000Y38100000D02*
X51435000Y38100000D01*
X47625000Y43180000D02*
X48895000Y43180000D01*
X70485000Y45720000D02*
X71755000Y45720000D01*
X70485000Y43180000D02*
X71755000Y43180000D01*
X47625000Y45720000D02*
X48895000Y45720000D01*
X45085000Y45720000D02*
X46355000Y45720000D01*
X67945000Y60960000D02*
X69215000Y60960000D01*
X45085000Y38100000D02*
X46355000Y38100000D01*
X47625000Y53340000D02*
X48895000Y53340000D01*
X57785000Y58420000D02*
X59055000Y58420000D01*
X75565000Y48260000D02*
X76835000Y48260000D01*
X45085000Y53340000D02*
X46355000Y53340000D01*
X45085000Y32385000D02*
X46355000Y32385000D01*
X75565000Y60960000D02*
X76835000Y60960000D01*
X50165000Y32385000D02*
X51435000Y32385000D01*
X47625000Y50800000D02*
X48895000Y50800000D01*
X62865000Y38100000D02*
X64135000Y38100000D01*
X45085000Y63500000D02*
X46355000Y63500000D01*
X67945000Y63500000D02*
X69215000Y63500000D01*
X67945000Y55880000D02*
X69215000Y55880000D01*
X70485000Y63500000D02*
X71755000Y63500000D01*
X70485000Y58446786D02*
X71755000Y58446786D01*
X73025000Y45720000D02*
X74295000Y45720000D01*
X57785000Y38100000D02*
X59055000Y38100000D01*
X73025000Y63500000D02*
X74295000Y63500000D01*
X70485000Y48260000D02*
X71755000Y48260000D01*
X50165000Y58420000D02*
X51435000Y58420000D01*
X47625000Y48260000D02*
X48895000Y48260000D01*
X73025000Y55880000D02*
X74295000Y55880000D01*
X60325000Y58420000D02*
X61595000Y58420000D01*
X52705000Y38100000D02*
X53975000Y38100000D01*
X65405000Y58420000D02*
X66675000Y58420000D01*
X75565000Y58446786D02*
X76835000Y58446786D01*
X75565000Y55880000D02*
X76835000Y55880000D01*
X52705000Y55880000D02*
X53975000Y55880000D01*
X52705000Y58420000D02*
X53975000Y58420000D01*
X73025000Y50800000D02*
X74295000Y50800000D01*
X60325000Y38100000D02*
X61595000Y38100000D01*
X45085000Y48260000D02*
X46355000Y48260000D01*
X47625000Y40640000D02*
X48895000Y40640000D01*
X73025000Y48260000D02*
X74295000Y48260000D01*
X50165000Y43180000D02*
X51435000Y43180000D01*
X47625000Y63500000D02*
X48895000Y63500000D01*
X52705000Y40640000D02*
X53975000Y40640000D01*
X73025000Y58446786D02*
X74295000Y58446786D01*
X45085000Y50800000D02*
X46355000Y50800000D01*
X50165000Y53340000D02*
X51435000Y53340000D01*
X65405000Y38100000D02*
X66675000Y38100000D01*
X70485000Y53340000D02*
X71755000Y53340000D01*
X12700000Y62799132D02*
G75*
G03*
X16510000Y62799132I1905000J0D01*
G01*
X52705000Y32385000D02*
X53975000Y32385000D01*
D11*
X42017142Y68037143D02*
X42017142Y69237143D01*
X42474285Y69237143D01*
X42588571Y69180000D01*
X42645714Y69122858D01*
X42702857Y69008572D01*
X42702857Y68837143D01*
X42645714Y68722858D01*
X42588571Y68665715D01*
X42474285Y68608572D01*
X42017142Y68608572D01*
X43445714Y69237143D02*
X43674285Y69237143D01*
X43788571Y69180000D01*
X43902857Y69065715D01*
X43960000Y68837143D01*
X43960000Y68437143D01*
X43902857Y68208572D01*
X43788571Y68094286D01*
X43674285Y68037143D01*
X43445714Y68037143D01*
X43331428Y68094286D01*
X43217142Y68208572D01*
X43160000Y68437143D01*
X43160000Y68837143D01*
X43217142Y69065715D01*
X43331428Y69180000D01*
X43445714Y69237143D01*
X44360000Y69237143D02*
X44645714Y68037143D01*
X44874285Y68894286D01*
X45102857Y68037143D01*
X45388571Y69237143D01*
X45845714Y68665715D02*
X46245714Y68665715D01*
X46417142Y68037143D02*
X45845714Y68037143D01*
X45845714Y69237143D01*
X46417142Y69237143D01*
X47617142Y68037143D02*
X47217142Y68608572D01*
X46931428Y68037143D02*
X46931428Y69237143D01*
X47388571Y69237143D01*
X47502857Y69180000D01*
X47560000Y69122858D01*
X47617142Y69008572D01*
X47617142Y68837143D01*
X47560000Y68722858D01*
X47502857Y68665715D01*
X47388571Y68608572D01*
X46931428Y68608572D01*
X48874285Y69237143D02*
X49560000Y69237143D01*
X49217142Y68037143D02*
X49217142Y69237143D01*
X50188571Y69237143D02*
X50417142Y69237143D01*
X50531428Y69180000D01*
X50645714Y69065715D01*
X50702857Y68837143D01*
X50702857Y68437143D01*
X50645714Y68208572D01*
X50531428Y68094286D01*
X50417142Y68037143D01*
X50188571Y68037143D01*
X50074285Y68094286D01*
X49960000Y68208572D01*
X49902857Y68437143D01*
X49902857Y68837143D01*
X49960000Y69065715D01*
X50074285Y69180000D01*
X50188571Y69237143D01*
X52131428Y68037143D02*
X52131428Y69237143D01*
X52531428Y68380000D01*
X52931428Y69237143D01*
X52931428Y68037143D01*
X53445714Y68380000D02*
X54017142Y68380000D01*
X53331428Y68037143D02*
X53731428Y69237143D01*
X54131428Y68037143D01*
X54531428Y68037143D02*
X54531428Y69237143D01*
X55217142Y68037143D02*
X54702857Y68722858D01*
X55217142Y69237143D02*
X54531428Y68551429D01*
X55731428Y68665715D02*
X56131428Y68665715D01*
X56302857Y68037143D02*
X55731428Y68037143D01*
X55731428Y69237143D01*
X56302857Y69237143D01*
X57960000Y68608572D02*
X57960000Y68037143D01*
X57560000Y69237143D02*
X57960000Y68608572D01*
X58360000Y69237143D01*
X58988571Y69237143D02*
X59217142Y69237143D01*
X59331428Y69180000D01*
X59445714Y69065715D01*
X59502857Y68837143D01*
X59502857Y68437143D01*
X59445714Y68208572D01*
X59331428Y68094286D01*
X59217142Y68037143D01*
X58988571Y68037143D01*
X58874285Y68094286D01*
X58760000Y68208572D01*
X58702857Y68437143D01*
X58702857Y68837143D01*
X58760000Y69065715D01*
X58874285Y69180000D01*
X58988571Y69237143D01*
X60017142Y69237143D02*
X60017142Y68265715D01*
X60074285Y68151429D01*
X60131428Y68094286D01*
X60245714Y68037143D01*
X60474285Y68037143D01*
X60588571Y68094286D01*
X60645714Y68151429D01*
X60702857Y68265715D01*
X60702857Y69237143D01*
X61960000Y68037143D02*
X61560000Y68608572D01*
X61274285Y68037143D02*
X61274285Y69237143D01*
X61731428Y69237143D01*
X61845714Y69180000D01*
X61902857Y69122858D01*
X61960000Y69008572D01*
X61960000Y68837143D01*
X61902857Y68722858D01*
X61845714Y68665715D01*
X61731428Y68608572D01*
X61274285Y68608572D01*
X63388571Y68037143D02*
X63388571Y69237143D01*
X63674285Y69237143D01*
X63845714Y69180000D01*
X63960000Y69065715D01*
X64017142Y68951429D01*
X64074285Y68722858D01*
X64074285Y68551429D01*
X64017142Y68322858D01*
X63960000Y68208572D01*
X63845714Y68094286D01*
X63674285Y68037143D01*
X63388571Y68037143D01*
X65274285Y68037143D02*
X64874285Y68608572D01*
X64588571Y68037143D02*
X64588571Y69237143D01*
X65045714Y69237143D01*
X65160000Y69180000D01*
X65217142Y69122858D01*
X65274285Y69008572D01*
X65274285Y68837143D01*
X65217142Y68722858D01*
X65160000Y68665715D01*
X65045714Y68608572D01*
X64588571Y68608572D01*
X65788571Y68665715D02*
X66188571Y68665715D01*
X66360000Y68037143D02*
X65788571Y68037143D01*
X65788571Y69237143D01*
X66360000Y69237143D01*
X66817142Y68380000D02*
X67388571Y68380000D01*
X66702857Y68037143D02*
X67102857Y69237143D01*
X67502857Y68037143D01*
X67902857Y68037143D02*
X67902857Y69237143D01*
X68302857Y68380000D01*
X68702857Y69237143D01*
X68702857Y68037143D01*
X70874285Y68151429D02*
X70817142Y68094286D01*
X70645714Y68037143D01*
X70531428Y68037143D01*
X70360000Y68094286D01*
X70245714Y68208572D01*
X70188571Y68322858D01*
X70131428Y68551429D01*
X70131428Y68722858D01*
X70188571Y68951429D01*
X70245714Y69065715D01*
X70360000Y69180000D01*
X70531428Y69237143D01*
X70645714Y69237143D01*
X70817142Y69180000D01*
X70874285Y69122858D01*
X71617142Y69237143D02*
X71845714Y69237143D01*
X71960000Y69180000D01*
X72074285Y69065715D01*
X72131428Y68837143D01*
X72131428Y68437143D01*
X72074285Y68208572D01*
X71960000Y68094286D01*
X71845714Y68037143D01*
X71617142Y68037143D01*
X71502857Y68094286D01*
X71388571Y68208572D01*
X71331428Y68437143D01*
X71331428Y68837143D01*
X71388571Y69065715D01*
X71502857Y69180000D01*
X71617142Y69237143D01*
X72645714Y68037143D02*
X72645714Y69237143D01*
X73045714Y68380000D01*
X73445714Y69237143D01*
X73445714Y68037143D01*
X74017142Y68665715D02*
X74417142Y68665715D01*
X74588571Y68037143D02*
X74017142Y68037143D01*
X74017142Y69237143D01*
X74588571Y69237143D01*
X75845714Y69237143D02*
X76531428Y69237143D01*
X76188571Y68037143D02*
X76188571Y69237143D01*
X77617142Y68037143D02*
X77217142Y68608572D01*
X76931428Y68037143D02*
X76931428Y69237143D01*
X77388571Y69237143D01*
X77502857Y69180000D01*
X77560000Y69122858D01*
X77617142Y69008572D01*
X77617142Y68837143D01*
X77560000Y68722858D01*
X77502857Y68665715D01*
X77388571Y68608572D01*
X76931428Y68608572D01*
X78131428Y69237143D02*
X78131428Y68265715D01*
X78188571Y68151429D01*
X78245714Y68094286D01*
X78360000Y68037143D01*
X78588571Y68037143D01*
X78702857Y68094286D01*
X78760000Y68151429D01*
X78817142Y68265715D01*
X78817142Y69237143D01*
X79388571Y68665715D02*
X79788571Y68665715D01*
X79960000Y68037143D02*
X79388571Y68037143D01*
X79388571Y69237143D01*
X79960000Y69237143D01*
D10*
X1143095Y10071513D02*
X1190714Y10119132D01*
X1285952Y10166752D01*
X1524047Y10166752D01*
X1619285Y10119132D01*
X1666904Y10071513D01*
X1714523Y9976275D01*
X1714523Y9881037D01*
X1666904Y9738180D01*
X1095476Y9166752D01*
X1714523Y9166752D01*
X2333571Y10166752D02*
X2428809Y10166752D01*
X2524047Y10119132D01*
X2571666Y10071513D01*
X2619285Y9976275D01*
X2666904Y9785799D01*
X2666904Y9547704D01*
X2619285Y9357228D01*
X2571666Y9261990D01*
X2524047Y9214371D01*
X2428809Y9166752D01*
X2333571Y9166752D01*
X2238333Y9214371D01*
X2190714Y9261990D01*
X2143095Y9357228D01*
X2095476Y9547704D01*
X2095476Y9785799D01*
X2143095Y9976275D01*
X2190714Y10071513D01*
X2238333Y10119132D01*
X2333571Y10166752D01*
X26999285Y58568418D02*
X26999285Y57901752D01*
X26761190Y58949371D02*
X26523095Y58235085D01*
X27142142Y58235085D01*
X27713571Y58901752D02*
X27808809Y58901752D01*
X27904047Y58854132D01*
X27951666Y58806513D01*
X27999285Y58711275D01*
X28046904Y58520799D01*
X28046904Y58282704D01*
X27999285Y58092228D01*
X27951666Y57996990D01*
X27904047Y57949371D01*
X27808809Y57901752D01*
X27713571Y57901752D01*
X27618333Y57949371D01*
X27570714Y57996990D01*
X27523095Y58092228D01*
X27475476Y58282704D01*
X27475476Y58520799D01*
X27523095Y58711275D01*
X27570714Y58806513D01*
X27618333Y58854132D01*
X27713571Y58901752D01*
X26523095Y10546513D02*
X26570714Y10594132D01*
X26665952Y10641752D01*
X26904047Y10641752D01*
X26999285Y10594132D01*
X27046904Y10546513D01*
X27094523Y10451275D01*
X27094523Y10356037D01*
X27046904Y10213180D01*
X26475476Y9641752D01*
X27094523Y9641752D01*
X28046904Y9641752D02*
X27475476Y9641752D01*
X27761190Y9641752D02*
X27761190Y10641752D01*
X27665952Y10498894D01*
X27570714Y10403656D01*
X27475476Y10356037D01*
D11*
X8490714Y52797143D02*
X8490714Y53997143D01*
X8890714Y53140000D01*
X9290714Y53997143D01*
X9290714Y52797143D01*
X9862142Y53425715D02*
X10262142Y53425715D01*
X10433571Y52797143D02*
X9862142Y52797143D01*
X9862142Y53997143D01*
X10433571Y53997143D01*
X10833571Y53997143D02*
X11633571Y53997143D01*
X10833571Y52797143D01*
X11633571Y52797143D01*
X12605000Y53997143D02*
X12376428Y53997143D01*
X12262142Y53940000D01*
X12205000Y53882858D01*
X12090714Y53711429D01*
X12033571Y53482858D01*
X12033571Y53025715D01*
X12090714Y52911429D01*
X12147857Y52854286D01*
X12262142Y52797143D01*
X12490714Y52797143D01*
X12605000Y52854286D01*
X12662142Y52911429D01*
X12719285Y53025715D01*
X12719285Y53311429D01*
X12662142Y53425715D01*
X12605000Y53482858D01*
X12490714Y53540000D01*
X12262142Y53540000D01*
X12147857Y53482858D01*
X12090714Y53425715D01*
X12033571Y53311429D01*
X13405000Y53482858D02*
X13290714Y53540000D01*
X13233571Y53597143D01*
X13176428Y53711429D01*
X13176428Y53768572D01*
X13233571Y53882858D01*
X13290714Y53940000D01*
X13405000Y53997143D01*
X13633571Y53997143D01*
X13747857Y53940000D01*
X13805000Y53882858D01*
X13862142Y53768572D01*
X13862142Y53711429D01*
X13805000Y53597143D01*
X13747857Y53540000D01*
X13633571Y53482858D01*
X13405000Y53482858D01*
X13290714Y53425715D01*
X13233571Y53368572D01*
X13176428Y53254286D01*
X13176428Y53025715D01*
X13233571Y52911429D01*
X13290714Y52854286D01*
X13405000Y52797143D01*
X13633571Y52797143D01*
X13747857Y52854286D01*
X13805000Y52911429D01*
X13862142Y53025715D01*
X13862142Y53254286D01*
X13805000Y53368572D01*
X13747857Y53425715D01*
X13633571Y53482858D01*
X14605000Y53997143D02*
X14719285Y53997143D01*
X14833571Y53940000D01*
X14890714Y53882858D01*
X14947857Y53768572D01*
X15005000Y53540000D01*
X15005000Y53254286D01*
X14947857Y53025715D01*
X14890714Y52911429D01*
X14833571Y52854286D01*
X14719285Y52797143D01*
X14605000Y52797143D01*
X14490714Y52854286D01*
X14433571Y52911429D01*
X14376428Y53025715D01*
X14319285Y53254286D01*
X14319285Y53540000D01*
X14376428Y53768572D01*
X14433571Y53882858D01*
X14490714Y53940000D01*
X14605000Y53997143D01*
X15405000Y53997143D02*
X16147857Y53997143D01*
X15747857Y53540000D01*
X15919285Y53540000D01*
X16033571Y53482858D01*
X16090714Y53425715D01*
X16147857Y53311429D01*
X16147857Y53025715D01*
X16090714Y52911429D01*
X16033571Y52854286D01*
X15919285Y52797143D01*
X15576428Y52797143D01*
X15462142Y52854286D01*
X15405000Y52911429D01*
X16890714Y53997143D02*
X17005000Y53997143D01*
X17119285Y53940000D01*
X17176428Y53882858D01*
X17233571Y53768572D01*
X17290714Y53540000D01*
X17290714Y53254286D01*
X17233571Y53025715D01*
X17176428Y52911429D01*
X17119285Y52854286D01*
X17005000Y52797143D01*
X16890714Y52797143D01*
X16776428Y52854286D01*
X16719285Y52911429D01*
X16662142Y53025715D01*
X16605000Y53254286D01*
X16605000Y53540000D01*
X16662142Y53768572D01*
X16719285Y53882858D01*
X16776428Y53940000D01*
X16890714Y53997143D01*
X18205000Y53425715D02*
X17805000Y53425715D01*
X17805000Y52797143D02*
X17805000Y53997143D01*
X18376428Y53997143D01*
X18833571Y52797143D02*
X18833571Y53997143D01*
X19290714Y53997143D01*
X19405000Y53940000D01*
X19462142Y53882858D01*
X19519285Y53768572D01*
X19519285Y53597143D01*
X19462142Y53482858D01*
X19405000Y53425715D01*
X19290714Y53368572D01*
X18833571Y53368572D01*
X20033571Y53997143D02*
X20033571Y53025715D01*
X20090714Y52911429D01*
X20147857Y52854286D01*
X20262142Y52797143D01*
X20490714Y52797143D01*
X20605000Y52854286D01*
X20662142Y52911429D01*
X20719285Y53025715D01*
X20719285Y53997143D01*
D10*
X2825714Y57426752D02*
X2254285Y57426752D01*
X2540000Y57426752D02*
X2540000Y58426752D01*
X2444761Y58283894D01*
X2349523Y58188656D01*
X2254285Y58141037D01*
X57745714Y49077620D02*
X57745714Y50077620D01*
X58079047Y49363334D01*
X58412380Y50077620D01*
X58412380Y49077620D01*
X59460000Y49172858D02*
X59412380Y49125239D01*
X59269523Y49077620D01*
X59174285Y49077620D01*
X59031428Y49125239D01*
X58936190Y49220477D01*
X58888571Y49315715D01*
X58840952Y49506191D01*
X58840952Y49649048D01*
X58888571Y49839524D01*
X58936190Y49934762D01*
X59031428Y50030000D01*
X59174285Y50077620D01*
X59269523Y50077620D01*
X59412380Y50030000D01*
X59460000Y49982381D01*
X60317142Y50077620D02*
X60126666Y50077620D01*
X60031428Y50030000D01*
X59983809Y49982381D01*
X59888571Y49839524D01*
X59840952Y49649048D01*
X59840952Y49268096D01*
X59888571Y49172858D01*
X59936190Y49125239D01*
X60031428Y49077620D01*
X60221904Y49077620D01*
X60317142Y49125239D01*
X60364761Y49172858D01*
X60412380Y49268096D01*
X60412380Y49506191D01*
X60364761Y49601429D01*
X60317142Y49649048D01*
X60221904Y49696667D01*
X60031428Y49696667D01*
X59936190Y49649048D01*
X59888571Y49601429D01*
X59840952Y49506191D01*
X60983809Y49649048D02*
X60888571Y49696667D01*
X60840952Y49744286D01*
X60793333Y49839524D01*
X60793333Y49887143D01*
X60840952Y49982381D01*
X60888571Y50030000D01*
X60983809Y50077620D01*
X61174285Y50077620D01*
X61269523Y50030000D01*
X61317142Y49982381D01*
X61364761Y49887143D01*
X61364761Y49839524D01*
X61317142Y49744286D01*
X61269523Y49696667D01*
X61174285Y49649048D01*
X60983809Y49649048D01*
X60888571Y49601429D01*
X60840952Y49553810D01*
X60793333Y49458572D01*
X60793333Y49268096D01*
X60840952Y49172858D01*
X60888571Y49125239D01*
X60983809Y49077620D01*
X61174285Y49077620D01*
X61269523Y49125239D01*
X61317142Y49172858D01*
X61364761Y49268096D01*
X61364761Y49458572D01*
X61317142Y49553810D01*
X61269523Y49601429D01*
X61174285Y49649048D01*
X61983809Y50077620D02*
X62079047Y50077620D01*
X62174285Y50030000D01*
X62221904Y49982381D01*
X62269523Y49887143D01*
X62317142Y49696667D01*
X62317142Y49458572D01*
X62269523Y49268096D01*
X62221904Y49172858D01*
X62174285Y49125239D01*
X62079047Y49077620D01*
X61983809Y49077620D01*
X61888571Y49125239D01*
X61840952Y49172858D01*
X61793333Y49268096D01*
X61745714Y49458572D01*
X61745714Y49696667D01*
X61793333Y49887143D01*
X61840952Y49982381D01*
X61888571Y50030000D01*
X61983809Y50077620D01*
X62650476Y50077620D02*
X63269523Y50077620D01*
X62936190Y49696667D01*
X63079047Y49696667D01*
X63174285Y49649048D01*
X63221904Y49601429D01*
X63269523Y49506191D01*
X63269523Y49268096D01*
X63221904Y49172858D01*
X63174285Y49125239D01*
X63079047Y49077620D01*
X62793333Y49077620D01*
X62698095Y49125239D01*
X62650476Y49172858D01*
X63888571Y50077620D02*
X63983809Y50077620D01*
X64079047Y50030000D01*
X64126666Y49982381D01*
X64174285Y49887143D01*
X64221904Y49696667D01*
X64221904Y49458572D01*
X64174285Y49268096D01*
X64126666Y49172858D01*
X64079047Y49125239D01*
X63983809Y49077620D01*
X63888571Y49077620D01*
X63793333Y49125239D01*
X63745714Y49172858D01*
X63698095Y49268096D01*
X63650476Y49458572D01*
X63650476Y49696667D01*
X63698095Y49887143D01*
X63745714Y49982381D01*
X63793333Y50030000D01*
X63888571Y50077620D01*
X53995314Y16057620D02*
X53995314Y17057620D01*
X54328647Y16343334D01*
X54661980Y17057620D01*
X54661980Y16057620D01*
X55709600Y16152858D02*
X55661980Y16105239D01*
X55519123Y16057620D01*
X55423885Y16057620D01*
X55281028Y16105239D01*
X55185790Y16200477D01*
X55138171Y16295715D01*
X55090552Y16486191D01*
X55090552Y16629048D01*
X55138171Y16819524D01*
X55185790Y16914762D01*
X55281028Y17010000D01*
X55423885Y17057620D01*
X55519123Y17057620D01*
X55661980Y17010000D01*
X55709600Y16962381D01*
X56566742Y17057620D02*
X56376266Y17057620D01*
X56281028Y17010000D01*
X56233409Y16962381D01*
X56138171Y16819524D01*
X56090552Y16629048D01*
X56090552Y16248096D01*
X56138171Y16152858D01*
X56185790Y16105239D01*
X56281028Y16057620D01*
X56471504Y16057620D01*
X56566742Y16105239D01*
X56614361Y16152858D01*
X56661980Y16248096D01*
X56661980Y16486191D01*
X56614361Y16581429D01*
X56566742Y16629048D01*
X56471504Y16676667D01*
X56281028Y16676667D01*
X56185790Y16629048D01*
X56138171Y16581429D01*
X56090552Y16486191D01*
X57233409Y16629048D02*
X57138171Y16676667D01*
X57090552Y16724286D01*
X57042933Y16819524D01*
X57042933Y16867143D01*
X57090552Y16962381D01*
X57138171Y17010000D01*
X57233409Y17057620D01*
X57423885Y17057620D01*
X57519123Y17010000D01*
X57566742Y16962381D01*
X57614361Y16867143D01*
X57614361Y16819524D01*
X57566742Y16724286D01*
X57519123Y16676667D01*
X57423885Y16629048D01*
X57233409Y16629048D01*
X57138171Y16581429D01*
X57090552Y16533810D01*
X57042933Y16438572D01*
X57042933Y16248096D01*
X57090552Y16152858D01*
X57138171Y16105239D01*
X57233409Y16057620D01*
X57423885Y16057620D01*
X57519123Y16105239D01*
X57566742Y16152858D01*
X57614361Y16248096D01*
X57614361Y16438572D01*
X57566742Y16533810D01*
X57519123Y16581429D01*
X57423885Y16629048D01*
X58185790Y16629048D02*
X58090552Y16676667D01*
X58042933Y16724286D01*
X57995314Y16819524D01*
X57995314Y16867143D01*
X58042933Y16962381D01*
X58090552Y17010000D01*
X58185790Y17057620D01*
X58376266Y17057620D01*
X58471504Y17010000D01*
X58519123Y16962381D01*
X58566742Y16867143D01*
X58566742Y16819524D01*
X58519123Y16724286D01*
X58471504Y16676667D01*
X58376266Y16629048D01*
X58185790Y16629048D01*
X58090552Y16581429D01*
X58042933Y16533810D01*
X57995314Y16438572D01*
X57995314Y16248096D01*
X58042933Y16152858D01*
X58090552Y16105239D01*
X58185790Y16057620D01*
X58376266Y16057620D01*
X58471504Y16105239D01*
X58519123Y16152858D01*
X58566742Y16248096D01*
X58566742Y16438572D01*
X58519123Y16533810D01*
X58471504Y16581429D01*
X58376266Y16629048D01*
X59138171Y16629048D02*
X59042933Y16676667D01*
X58995314Y16724286D01*
X58947695Y16819524D01*
X58947695Y16867143D01*
X58995314Y16962381D01*
X59042933Y17010000D01*
X59138171Y17057620D01*
X59328647Y17057620D01*
X59423885Y17010000D01*
X59471504Y16962381D01*
X59519123Y16867143D01*
X59519123Y16819524D01*
X59471504Y16724286D01*
X59423885Y16676667D01*
X59328647Y16629048D01*
X59138171Y16629048D01*
X59042933Y16581429D01*
X58995314Y16533810D01*
X58947695Y16438572D01*
X58947695Y16248096D01*
X58995314Y16152858D01*
X59042933Y16105239D01*
X59138171Y16057620D01*
X59328647Y16057620D01*
X59423885Y16105239D01*
X59471504Y16152858D01*
X59519123Y16248096D01*
X59519123Y16438572D01*
X59471504Y16533810D01*
X59423885Y16581429D01*
X59328647Y16629048D01*
X60471504Y16057620D02*
X59900076Y16057620D01*
X60185790Y16057620D02*
X60185790Y17057620D01*
X60090552Y16914762D01*
X59995314Y16819524D01*
X59900076Y16771905D01*
X42378333Y44727858D02*
X42330714Y44680239D01*
X42187857Y44632620D01*
X42092619Y44632620D01*
X41949761Y44680239D01*
X41854523Y44775477D01*
X41806904Y44870715D01*
X41759285Y45061191D01*
X41759285Y45204048D01*
X41806904Y45394524D01*
X41854523Y45489762D01*
X41949761Y45585000D01*
X42092619Y45632620D01*
X42187857Y45632620D01*
X42330714Y45585000D01*
X42378333Y45537381D01*
X42759285Y45537381D02*
X42806904Y45585000D01*
X42902142Y45632620D01*
X43140238Y45632620D01*
X43235476Y45585000D01*
X43283095Y45537381D01*
X43330714Y45442143D01*
X43330714Y45346905D01*
X43283095Y45204048D01*
X42711666Y44632620D01*
X43330714Y44632620D01*
D12*
X60198095Y46267620D02*
X60198095Y45458096D01*
X60245714Y45362858D01*
X60293333Y45315239D01*
X60388571Y45267620D01*
X60579047Y45267620D01*
X60674285Y45315239D01*
X60721904Y45362858D01*
X60769523Y45458096D01*
X60769523Y46267620D01*
X61769523Y45267620D02*
X61198095Y45267620D01*
X61483809Y45267620D02*
X61483809Y46267620D01*
X61388571Y46124762D01*
X61293333Y46029524D01*
X61198095Y45981905D01*
D10*
X71588333Y2817858D02*
X71540714Y2770239D01*
X71397857Y2722620D01*
X71302619Y2722620D01*
X71159761Y2770239D01*
X71064523Y2865477D01*
X71016904Y2960715D01*
X70969285Y3151191D01*
X70969285Y3294048D01*
X71016904Y3484524D01*
X71064523Y3579762D01*
X71159761Y3675000D01*
X71302619Y3722620D01*
X71397857Y3722620D01*
X71540714Y3675000D01*
X71588333Y3627381D01*
X72493095Y3722620D02*
X72016904Y3722620D01*
X71969285Y3246429D01*
X72016904Y3294048D01*
X72112142Y3341667D01*
X72350238Y3341667D01*
X72445476Y3294048D01*
X72493095Y3246429D01*
X72540714Y3151191D01*
X72540714Y2913096D01*
X72493095Y2817858D01*
X72445476Y2770239D01*
X72350238Y2722620D01*
X72112142Y2722620D01*
X72016904Y2770239D01*
X71969285Y2817858D01*
X36663333Y46537620D02*
X36330000Y47013810D01*
X36091904Y46537620D02*
X36091904Y47537620D01*
X36472857Y47537620D01*
X36568095Y47490000D01*
X36615714Y47442381D01*
X36663333Y47347143D01*
X36663333Y47204286D01*
X36615714Y47109048D01*
X36568095Y47061429D01*
X36472857Y47013810D01*
X36091904Y47013810D01*
X37615714Y46537620D02*
X37044285Y46537620D01*
X37330000Y46537620D02*
X37330000Y47537620D01*
X37234761Y47394762D01*
X37139523Y47299524D01*
X37044285Y47251905D01*
D12*
X56388095Y13882620D02*
X56388095Y13073096D01*
X56435714Y12977858D01*
X56483333Y12930239D01*
X56578571Y12882620D01*
X56769047Y12882620D01*
X56864285Y12930239D01*
X56911904Y12977858D01*
X56959523Y13073096D01*
X56959523Y13882620D01*
X57388095Y13787381D02*
X57435714Y13835000D01*
X57530952Y13882620D01*
X57769047Y13882620D01*
X57864285Y13835000D01*
X57911904Y13787381D01*
X57959523Y13692143D01*
X57959523Y13596905D01*
X57911904Y13454048D01*
X57340476Y12882620D01*
X57959523Y12882620D01*
D10*
X42378333Y23137858D02*
X42330714Y23090239D01*
X42187857Y23042620D01*
X42092619Y23042620D01*
X41949761Y23090239D01*
X41854523Y23185477D01*
X41806904Y23280715D01*
X41759285Y23471191D01*
X41759285Y23614048D01*
X41806904Y23804524D01*
X41854523Y23899762D01*
X41949761Y23995000D01*
X42092619Y24042620D01*
X42187857Y24042620D01*
X42330714Y23995000D01*
X42378333Y23947381D01*
X43235476Y23709286D02*
X43235476Y23042620D01*
X42997380Y24090239D02*
X42759285Y23375953D01*
X43378333Y23375953D01*
X13843095Y25947620D02*
X13843095Y25138096D01*
X13890714Y25042858D01*
X13938333Y24995239D01*
X14033571Y24947620D01*
X14224047Y24947620D01*
X14319285Y24995239D01*
X14366904Y25042858D01*
X14414523Y25138096D01*
X14414523Y25947620D01*
X14795476Y25947620D02*
X15414523Y25947620D01*
X15081190Y25566667D01*
X15224047Y25566667D01*
X15319285Y25519048D01*
X15366904Y25471429D01*
X15414523Y25376191D01*
X15414523Y25138096D01*
X15366904Y25042858D01*
X15319285Y24995239D01*
X15224047Y24947620D01*
X14938333Y24947620D01*
X14843095Y24995239D01*
X14795476Y25042858D01*
X21423333Y25657858D02*
X21375714Y25610239D01*
X21232857Y25562620D01*
X21137619Y25562620D01*
X20994761Y25610239D01*
X20899523Y25705477D01*
X20851904Y25800715D01*
X20804285Y25991191D01*
X20804285Y26134048D01*
X20851904Y26324524D01*
X20899523Y26419762D01*
X20994761Y26515000D01*
X21137619Y26562620D01*
X21232857Y26562620D01*
X21375714Y26515000D01*
X21423333Y26467381D01*
X22280476Y26562620D02*
X22090000Y26562620D01*
X21994761Y26515000D01*
X21947142Y26467381D01*
X21851904Y26324524D01*
X21804285Y26134048D01*
X21804285Y25753096D01*
X21851904Y25657858D01*
X21899523Y25610239D01*
X21994761Y25562620D01*
X22185238Y25562620D01*
X22280476Y25610239D01*
X22328095Y25657858D01*
X22375714Y25753096D01*
X22375714Y25991191D01*
X22328095Y26086429D01*
X22280476Y26134048D01*
X22185238Y26181667D01*
X21994761Y26181667D01*
X21899523Y26134048D01*
X21851904Y26086429D01*
X21804285Y25991191D01*
X79208333Y44727858D02*
X79160714Y44680239D01*
X79017857Y44632620D01*
X78922619Y44632620D01*
X78779761Y44680239D01*
X78684523Y44775477D01*
X78636904Y44870715D01*
X78589285Y45061191D01*
X78589285Y45204048D01*
X78636904Y45394524D01*
X78684523Y45489762D01*
X78779761Y45585000D01*
X78922619Y45632620D01*
X79017857Y45632620D01*
X79160714Y45585000D01*
X79208333Y45537381D01*
X79541666Y45632620D02*
X80160714Y45632620D01*
X79827380Y45251667D01*
X79970238Y45251667D01*
X80065476Y45204048D01*
X80113095Y45156429D01*
X80160714Y45061191D01*
X80160714Y44823096D01*
X80113095Y44727858D01*
X80065476Y44680239D01*
X79970238Y44632620D01*
X79684523Y44632620D01*
X79589285Y44680239D01*
X79541666Y44727858D01*
X14438333Y32408858D02*
X14390714Y32361239D01*
X14247857Y32313620D01*
X14152619Y32313620D01*
X14009761Y32361239D01*
X13914523Y32456477D01*
X13866904Y32551715D01*
X13819285Y32742191D01*
X13819285Y32885048D01*
X13866904Y33075524D01*
X13914523Y33170762D01*
X14009761Y33266000D01*
X14152619Y33313620D01*
X14247857Y33313620D01*
X14390714Y33266000D01*
X14438333Y33218381D01*
X15390714Y32313620D02*
X14819285Y32313620D01*
X15105000Y32313620D02*
X15105000Y33313620D01*
X15009761Y33170762D01*
X14914523Y33075524D01*
X14819285Y33027905D01*
D13*
X43965000Y50280000D02*
X43340000Y50280000D01*
X41750000Y50280000D02*
X41125000Y50280000D01*
X41125000Y50280000D02*
X41125000Y46240000D01*
X43965000Y46240000D02*
X43340000Y46240000D01*
X41750000Y46240000D02*
X41125000Y46240000D01*
X43965000Y50280000D02*
X43965000Y46240000D01*
D14*
X45085000Y66040000D02*
X45720000Y66040000D01*
X77470000Y66040000D02*
X45720000Y66040000D01*
X44450000Y64770000D02*
X44450000Y33020000D01*
X44450000Y65405000D02*
X45085000Y66040000D01*
X44450000Y64770000D02*
X44450000Y65405000D01*
X77470000Y33020000D02*
X77470000Y66040000D01*
X44450000Y33020000D02*
X77470000Y33020000D01*
D13*
X73175000Y4330000D02*
X72550000Y4330000D01*
X73175000Y8370000D02*
X73175000Y4330000D01*
X70335000Y8370000D02*
X70335000Y4330000D01*
X70960000Y8370000D02*
X70335000Y8370000D01*
X70960000Y4330000D02*
X70335000Y4330000D01*
X73175000Y8370000D02*
X72550000Y8370000D01*
X38000000Y43720000D02*
X40740000Y43720000D01*
X38000000Y50260000D02*
X38000000Y43720000D01*
X40740000Y43720000D02*
X40740000Y50260000D01*
X39370000Y42950000D02*
X39370000Y43720000D01*
X39370000Y51030000D02*
X39370000Y50260000D01*
X40740000Y50260000D02*
X38000000Y50260000D01*
D14*
X44450000Y28575000D02*
X45085000Y29210000D01*
X69850000Y29210000D02*
X45720000Y29210000D01*
X45085000Y29210000D02*
X45720000Y29210000D01*
X69850000Y3810000D02*
X69850000Y29210000D01*
X44450000Y3810000D02*
X69850000Y3810000D01*
X44450000Y27940000D02*
X44450000Y3810000D01*
X44450000Y27940000D02*
X44450000Y28575000D01*
D13*
X41750000Y24670000D02*
X41125000Y24670000D01*
X43965000Y24670000D02*
X43340000Y24670000D01*
X43965000Y28710000D02*
X43965000Y24670000D01*
X41750000Y28710000D02*
X41125000Y28710000D01*
X41125000Y28710000D02*
X41125000Y24670000D01*
X43965000Y28710000D02*
X43340000Y28710000D01*
X17255000Y13915000D02*
X17255000Y31815000D01*
X13605000Y31815000D02*
X11955000Y31815000D01*
X11955000Y31815000D02*
X11955000Y13915000D01*
X17255000Y31815000D02*
X15605000Y31815000D01*
X11955000Y13915000D02*
X17255000Y13915000D01*
X13605000Y31815000D02*
G75*
G03*
X15605000Y31815000I1000000J0D01*
G01*
X22385000Y27170000D02*
X23010000Y27170000D01*
X20170000Y27170000D02*
X20170000Y31210000D01*
X20170000Y31210000D02*
X20795000Y31210000D01*
X20170000Y27170000D02*
X20795000Y27170000D01*
X22385000Y31210000D02*
X23010000Y31210000D01*
X23010000Y27170000D02*
X23010000Y31210000D01*
X80815000Y46240000D02*
X80190000Y46240000D01*
X78600000Y46240000D02*
X77975000Y46240000D01*
X80815000Y50280000D02*
X80815000Y46240000D01*
X80815000Y50280000D02*
X80190000Y50280000D01*
X77975000Y50280000D02*
X77975000Y46240000D01*
X78600000Y50280000D02*
X77975000Y50280000D01*
X11915000Y38698620D02*
X13565000Y38698620D01*
X11377000Y37017620D02*
X17833000Y37017620D01*
X12771000Y39578620D02*
X16439000Y39578620D01*
X11410000Y37377620D02*
X13565000Y37377620D01*
X11635000Y38178620D02*
X13565000Y38178620D01*
X11375000Y36977620D02*
X17835000Y36977620D01*
X11394000Y37257620D02*
X13565000Y37257620D01*
X15645000Y37978620D02*
X17652000Y37978620D01*
X15645000Y38418620D02*
X17461000Y38418620D01*
X15645000Y37137620D02*
X17827000Y37137620D01*
X12340000Y39218620D02*
X16870000Y39218620D01*
X12262000Y39138620D02*
X13565000Y39138620D01*
X15645000Y39058620D02*
X17021000Y39058620D01*
X15645000Y38858620D02*
X17183000Y38858620D01*
X14203000Y40138620D02*
X15007000Y40138620D01*
X13024000Y39738620D02*
X16186000Y39738620D01*
X13343000Y39898620D02*
X15867000Y39898620D01*
X13803000Y40058620D02*
X15407000Y40058620D01*
X11793000Y38498620D02*
X13565000Y38498620D01*
X12225000Y39098620D02*
X13565000Y39098620D01*
X15645000Y38818620D02*
X17212000Y38818620D01*
X11998000Y38818620D02*
X13565000Y38818620D01*
X13173000Y39818620D02*
X16037000Y39818620D01*
X11771000Y38458620D02*
X13565000Y38458620D01*
X15645000Y37417620D02*
X17794000Y37417620D01*
X15645000Y38378620D02*
X17481000Y38378620D01*
X13255000Y39858620D02*
X15955000Y39858620D01*
X12955000Y39698620D02*
X16255000Y39698620D01*
X15645000Y37337620D02*
X17806000Y37337620D01*
X11495000Y37778620D02*
X13565000Y37778620D01*
X11375000Y36937620D02*
X17835000Y36937620D01*
X15645000Y38258620D02*
X17539000Y38258620D01*
X15645000Y39138620D02*
X16948000Y39138620D01*
X11729000Y38378620D02*
X13565000Y38378620D01*
X15645000Y38138620D02*
X17591000Y38138620D01*
X15645000Y38218620D02*
X17557000Y38218620D01*
X15645000Y38538620D02*
X17395000Y38538620D01*
X13096000Y39778620D02*
X16114000Y39778620D01*
X15645000Y37217620D02*
X17820000Y37217620D01*
X15645000Y37177620D02*
X17823000Y37177620D01*
X11474000Y37698620D02*
X13565000Y37698620D01*
X11544000Y37938620D02*
X13565000Y37938620D01*
X11423000Y37457620D02*
X13565000Y37457620D01*
X15645000Y38698620D02*
X17295000Y38698620D01*
X15645000Y38578620D02*
X17371000Y38578620D01*
X12451000Y33712379D02*
X13081000Y33712379D01*
X15645000Y37618620D02*
X17755000Y37618620D01*
X11587000Y38058620D02*
X13565000Y38058620D01*
X15645000Y37297620D02*
X17811000Y37297620D01*
X12089000Y38938620D02*
X13565000Y38938620D01*
X11378000Y37057620D02*
X17832000Y37057620D01*
X11558000Y37978620D02*
X13565000Y37978620D01*
X12715000Y39538620D02*
X16495000Y39538620D01*
X12891000Y39658620D02*
X16319000Y39658620D01*
X12829000Y39618620D02*
X16381000Y39618620D01*
X15645000Y38778620D02*
X17241000Y38778620D01*
X15645000Y39018620D02*
X17055000Y39018620D01*
X11519000Y37858620D02*
X13565000Y37858620D01*
X15645000Y37938620D02*
X17666000Y37938620D01*
X11464000Y37658620D02*
X13565000Y37658620D01*
X15645000Y37818620D02*
X17703000Y37818620D01*
X12121000Y38978620D02*
X13565000Y38978620D01*
X11399000Y37297620D02*
X13565000Y37297620D01*
X11430000Y37497620D02*
X13565000Y37497620D01*
X12661000Y39498620D02*
X16549000Y39498620D01*
X11709000Y38338620D02*
X13565000Y38338620D01*
X15645000Y39178620D02*
X16910000Y39178620D01*
X12300000Y39178620D02*
X13565000Y39178620D01*
X15645000Y38058620D02*
X17623000Y38058620D01*
X11381000Y37097620D02*
X17829000Y37097620D01*
X15645000Y38178620D02*
X17575000Y38178620D01*
X11572000Y38018620D02*
X13565000Y38018620D01*
X11839000Y38578620D02*
X13565000Y38578620D01*
X12468000Y39338620D02*
X16742000Y39338620D01*
X15645000Y38098620D02*
X17607000Y38098620D01*
X11749000Y38418620D02*
X13565000Y38418620D01*
X11383000Y37137620D02*
X13565000Y37137620D01*
X15645000Y38298620D02*
X17521000Y38298620D01*
X15645000Y38658620D02*
X17321000Y38658620D01*
X13665000Y40018620D02*
X15545000Y40018620D01*
X15645000Y37738620D02*
X17726000Y37738620D01*
X15645000Y37377620D02*
X17800000Y37377620D01*
X11653000Y38218620D02*
X13565000Y38218620D01*
X12155000Y39018620D02*
X13565000Y39018620D01*
X11484000Y37738620D02*
X13565000Y37738620D01*
X11941000Y38738620D02*
X13565000Y38738620D01*
X15645000Y38458620D02*
X17439000Y38458620D01*
X15645000Y38738620D02*
X17269000Y38738620D01*
X15645000Y38618620D02*
X17347000Y38618620D01*
X15645000Y38978620D02*
X17089000Y38978620D01*
X12513000Y39378620D02*
X16697000Y39378620D01*
X11863000Y38618620D02*
X13565000Y38618620D01*
X11416000Y37417620D02*
X13565000Y37417620D01*
X12423000Y39298620D02*
X16787000Y39298620D01*
X12057000Y38898620D02*
X13565000Y38898620D01*
X15645000Y37778620D02*
X17715000Y37778620D01*
X15645000Y37898620D02*
X17679000Y37898620D01*
X12766000Y33397379D02*
X12766000Y34027379D01*
X15645000Y37537620D02*
X17772000Y37537620D01*
X15645000Y37497620D02*
X17780000Y37497620D01*
X11387000Y37177620D02*
X13565000Y37177620D01*
X15645000Y39098620D02*
X16985000Y39098620D01*
X11507000Y37818620D02*
X13565000Y37818620D01*
X15645000Y37457620D02*
X17787000Y37457620D01*
X15645000Y37658620D02*
X17746000Y37658620D01*
X11531000Y37898620D02*
X13565000Y37898620D01*
X15645000Y38498620D02*
X17417000Y38498620D01*
X11390000Y37217620D02*
X13565000Y37217620D01*
X11446000Y37577620D02*
X13565000Y37577620D01*
X11455000Y37618620D02*
X13565000Y37618620D01*
X15645000Y38938620D02*
X17121000Y38938620D01*
X12561000Y39418620D02*
X16649000Y39418620D01*
X11603000Y38098620D02*
X13565000Y38098620D01*
X15645000Y37858620D02*
X17691000Y37858620D01*
X15645000Y37257620D02*
X17816000Y37257620D01*
X11375000Y36897620D02*
X17835000Y36897620D01*
X11969000Y38778620D02*
X13565000Y38778620D01*
X11404000Y37337620D02*
X13565000Y37337620D01*
X15645000Y38018620D02*
X17638000Y38018620D01*
X13972000Y40098620D02*
X15238000Y40098620D01*
X11889000Y38658620D02*
X13565000Y38658620D01*
X11438000Y37537620D02*
X13565000Y37537620D01*
X12610000Y39458620D02*
X16600000Y39458620D01*
X11689000Y38298620D02*
X13565000Y38298620D01*
X11671000Y38258620D02*
X13565000Y38258620D01*
X12027000Y38858620D02*
X13565000Y38858620D01*
X15645000Y38898620D02*
X17153000Y38898620D01*
X11619000Y38138620D02*
X13565000Y38138620D01*
X15645000Y38338620D02*
X17501000Y38338620D01*
X15645000Y37698620D02*
X17736000Y37698620D01*
X12381000Y39258620D02*
X16829000Y39258620D01*
X13440000Y39938620D02*
X15770000Y39938620D01*
X12189000Y39058620D02*
X13565000Y39058620D01*
X13546000Y39978620D02*
X15664000Y39978620D01*
X11815000Y38538620D02*
X13565000Y38538620D01*
X15645000Y37577620D02*
X17764000Y37577620D01*
X17875000Y36897620D02*
G75*
G03*
X17875000Y36897620I-3270000J0D01*
G01*
D15*
X45720000Y64770000D03*
D16*
X48260000Y64770000D03*
X50800000Y64770000D03*
X53340000Y64770000D03*
X55880000Y64770000D03*
X58420000Y64770000D03*
X60960000Y64770000D03*
X63500000Y64770000D03*
X66040000Y64770000D03*
X68580000Y64770000D03*
X71120000Y64770000D03*
X73660000Y64770000D03*
X76200000Y64770000D03*
X45720000Y62230000D03*
X48260000Y62230000D03*
X50800000Y62230000D03*
X53340000Y62230000D03*
X55880000Y62230000D03*
X58420000Y62230000D03*
X60960000Y62230000D03*
X63500000Y62230000D03*
X66040000Y62230000D03*
X68580000Y62230000D03*
X71120000Y62230000D03*
X73660000Y62230000D03*
X76200000Y62230000D03*
X45720000Y59690000D03*
X48260000Y59690000D03*
X50800000Y59690000D03*
X53340000Y59690000D03*
X55880000Y59690000D03*
X58420000Y59690000D03*
X60960000Y59690000D03*
X63500000Y59690000D03*
X66040000Y59690000D03*
X68580000Y59690000D03*
X71120000Y59690000D03*
X73660000Y59690000D03*
X76200000Y59690000D03*
X45720000Y57150000D03*
X48260000Y57150000D03*
X50800000Y57150000D03*
X53340000Y57150000D03*
X55880000Y57150000D03*
X68580000Y57150000D03*
X71120000Y57150000D03*
X73660000Y57150000D03*
X76200000Y57150000D03*
X45720000Y54610000D03*
X48260000Y54610000D03*
X50800000Y54610000D03*
X71120000Y54610000D03*
X73660000Y54610000D03*
X76200000Y54610000D03*
X45720000Y52070000D03*
X48260000Y52070000D03*
X50800000Y52070000D03*
X53340000Y52070000D03*
X68580000Y52070000D03*
X71120000Y52070000D03*
X73660000Y52070000D03*
X76200000Y52070000D03*
X45720000Y49530000D03*
X48260000Y49530000D03*
X50800000Y49530000D03*
X71120000Y49530000D03*
X73660000Y49530000D03*
X76200000Y49530000D03*
X45720000Y46990000D03*
X48260000Y46990000D03*
X50800000Y46990000D03*
X71120000Y46990000D03*
X73660000Y46990000D03*
X76200000Y46990000D03*
X45720000Y44450000D03*
X48260000Y44450000D03*
X50800000Y44450000D03*
X71120000Y44450000D03*
X73660000Y44450000D03*
X76200000Y44450000D03*
X45720000Y41910000D03*
X48260000Y41910000D03*
X50800000Y41910000D03*
X53340000Y41910000D03*
X55880000Y41910000D03*
X68580000Y41910000D03*
X71120000Y41910000D03*
X73660000Y41910000D03*
X76200000Y41910000D03*
X45720000Y39370000D03*
X48260000Y39370000D03*
X50800000Y39370000D03*
X53340000Y39370000D03*
X55880000Y39370000D03*
X58420000Y39370000D03*
X60960000Y39370000D03*
X63500000Y39370000D03*
X66040000Y39370000D03*
X68580000Y39370000D03*
X71120000Y39370000D03*
X73660000Y39370000D03*
X76200000Y39370000D03*
X45720000Y36830000D03*
X48260000Y36830000D03*
X50800000Y36830000D03*
X53340000Y36830000D03*
X55880000Y36830000D03*
X58420000Y36830000D03*
X60960000Y36830000D03*
X63500000Y36830000D03*
X66040000Y36830000D03*
X68580000Y36830000D03*
X71120000Y36830000D03*
X73660000Y36830000D03*
X76200000Y36830000D03*
X45720000Y34290000D03*
X48260000Y34290000D03*
X50800000Y34290000D03*
X53340000Y34290000D03*
X55880000Y34290000D03*
X58420000Y34290000D03*
X60960000Y34290000D03*
X63500000Y34290000D03*
X66040000Y34290000D03*
X68580000Y34290000D03*
X71120000Y34290000D03*
X73660000Y34290000D03*
X76200000Y34290000D03*
D15*
X45720000Y27940000D03*
D16*
X48260000Y27940000D03*
X50800000Y27940000D03*
X53340000Y27940000D03*
X55880000Y27940000D03*
X58420000Y27940000D03*
X60960000Y27940000D03*
X63500000Y27940000D03*
X66040000Y27940000D03*
X68580000Y27940000D03*
X45720000Y25400000D03*
X48260000Y25400000D03*
X50800000Y25400000D03*
X53340000Y25400000D03*
X55880000Y25400000D03*
X58420000Y25400000D03*
X60960000Y25400000D03*
X63500000Y25400000D03*
X66040000Y25400000D03*
X68580000Y25400000D03*
X45720000Y22860000D03*
X48260000Y22860000D03*
X50800000Y22860000D03*
X63500000Y22860000D03*
X66040000Y22860000D03*
X68580000Y22860000D03*
X45720000Y20320000D03*
X48260000Y20320000D03*
X66040000Y20320000D03*
X68580000Y20320000D03*
X45720000Y17780000D03*
X48260000Y17780000D03*
X66040000Y17780000D03*
X68580000Y17780000D03*
X45720000Y15240000D03*
X48260000Y15240000D03*
X66040000Y15240000D03*
X68580000Y15240000D03*
X45720000Y12700000D03*
X48260000Y12700000D03*
X66040000Y12700000D03*
X68580000Y12700000D03*
X45720000Y10160000D03*
X48260000Y10160000D03*
X50800000Y10160000D03*
X63500000Y10160000D03*
X66040000Y10160000D03*
X68580000Y10160000D03*
X45720000Y7620000D03*
X48260000Y7620000D03*
X50800000Y7620000D03*
X53340000Y7620000D03*
X55880000Y7620000D03*
X58420000Y7620000D03*
X60960000Y7620000D03*
X63500000Y7620000D03*
X66040000Y7620000D03*
X68580000Y7620000D03*
X45720000Y5080000D03*
X48260000Y5080000D03*
X50800000Y5080000D03*
X53340000Y5080000D03*
X55880000Y5080000D03*
X58420000Y5080000D03*
X60960000Y5080000D03*
X63500000Y5080000D03*
X66040000Y5080000D03*
X68580000Y5080000D03*
M02*
