M48
; DRILL file {KiCad (6.0.10-0)} date 
; FORMAT={-:-/ absolute / metric / decimal}
; #@! TF.CreationDate,2023-01-31T11:03:18+09:00
; #@! TF.GenerationSoftware,Kicad,Pcbnew,(6.0.10-0)
; #@! TF.FileFunction,MixedPlating,1,2
FMAT,2
METRIC
; #@! TA.AperFunction,Plated,PTH,ViaDrill
T1C0.300
; #@! TA.AperFunction,Plated,PTH,ComponentDrill
T2C0.787
; #@! TA.AperFunction,Plated,PTH,ComponentDrill
T3C0.800
; #@! TA.AperFunction,Plated,PTH,ComponentDrill
T4C1.000
%
G90
G05
T1
X1.27Y61.595
X1.27Y8.255
X7.62Y52.07
X7.62Y45.72
X7.62Y33.02
X20.955Y20.32
X21.59Y52.07
X21.59Y45.72
X23.86Y26.519
X26.289Y48.791
X26.416Y22.86
X26.425Y11.312
X27.034Y39.226
X27.051Y40.287
X27.142Y21.554
X27.305Y34.925
X27.305Y31.75
X27.305Y30.48
X27.305Y29.21
X27.305Y8.255
X27.797Y39.225
X29.21Y17.78
X29.21Y15.24
X30.48Y29.21
X30.48Y24.765
X31.115Y20.32
X31.75Y47.625
X31.75Y46.355
X31.75Y45.085
X37.465Y52.07
X37.465Y20.32
X38.1Y34.925
X38.481Y24.765
X39.116Y38.354
X39.349Y25.662
X39.364Y24.769
X39.37Y30.48
X39.37Y18.542
X39.751Y38.862
X40.132Y17.803
X40.259Y24.765
X40.64Y1.27
X40.767Y26.289
X41.275Y69.85
X41.852Y17.226
X42.545Y20.32
X42.545Y11.43
X43.18Y55.88
X43.18Y53.34
X43.18Y34.925
X44.162Y25.512
X44.173Y26.924
X44.575Y37.79
X46.663Y35.272
X47.625Y31.115
X50.8Y31.115
X50.8Y16.51
X52.807Y32.714
X53.34Y22.86
X53.34Y10.16
X55.88Y48.26
X56.515Y31.115
X58.42Y57.15
X58.42Y41.91
X60.96Y22.86
X60.96Y10.16
X62.865Y16.51
X63.5Y8.816
X63.523Y13.344
X64.694Y8.022
X66.04Y57.15
X66.04Y48.26
X66.04Y41.91
X71.38Y9.531
X74.93Y63.5
X81.915Y69.85
X81.915Y31.115
X81.915Y1.27
T2
X45.72Y64.77
X45.72Y62.23
X45.72Y59.69
X45.72Y57.15
X45.72Y54.61
X45.72Y52.07
X45.72Y49.53
X45.72Y46.99
X45.72Y44.45
X45.72Y41.91
X45.72Y39.37
X45.72Y36.83
X45.72Y34.29
X45.72Y27.94
X45.72Y25.4
X45.72Y22.86
X45.72Y20.32
X45.72Y17.78
X45.72Y15.24
X45.72Y12.7
X45.72Y10.16
X45.72Y7.62
X45.72Y5.08
X48.26Y64.77
X48.26Y62.23
X48.26Y59.69
X48.26Y57.15
X48.26Y54.61
X48.26Y52.07
X48.26Y49.53
X48.26Y46.99
X48.26Y44.45
X48.26Y41.91
X48.26Y39.37
X48.26Y36.83
X48.26Y34.29
X48.26Y27.94
X48.26Y25.4
X48.26Y22.86
X48.26Y20.32
X48.26Y17.78
X48.26Y15.24
X48.26Y12.7
X48.26Y10.16
X48.26Y7.62
X48.26Y5.08
X50.8Y64.77
X50.8Y62.23
X50.8Y59.69
X50.8Y57.15
X50.8Y54.61
X50.8Y52.07
X50.8Y49.53
X50.8Y46.99
X50.8Y44.45
X50.8Y41.91
X50.8Y39.37
X50.8Y36.83
X50.8Y34.29
X50.8Y27.94
X50.8Y25.4
X50.8Y22.86
X50.8Y10.16
X50.8Y7.62
X50.8Y5.08
X53.34Y64.77
X53.34Y62.23
X53.34Y59.69
X53.34Y57.15
X53.34Y52.07
X53.34Y41.91
X53.34Y39.37
X53.34Y36.83
X53.34Y34.29
X53.34Y27.94
X53.34Y25.4
X53.34Y7.62
X53.34Y5.08
X55.88Y64.77
X55.88Y62.23
X55.88Y59.69
X55.88Y57.15
X55.88Y41.91
X55.88Y39.37
X55.88Y36.83
X55.88Y34.29
X55.88Y27.94
X55.88Y25.4
X55.88Y7.62
X55.88Y5.08
X58.42Y64.77
X58.42Y62.23
X58.42Y59.69
X58.42Y39.37
X58.42Y36.83
X58.42Y34.29
X58.42Y27.94
X58.42Y25.4
X58.42Y7.62
X58.42Y5.08
X60.96Y64.77
X60.96Y62.23
X60.96Y59.69
X60.96Y39.37
X60.96Y36.83
X60.96Y34.29
X60.96Y27.94
X60.96Y25.4
X60.96Y7.62
X60.96Y5.08
X63.5Y64.77
X63.5Y62.23
X63.5Y59.69
X63.5Y39.37
X63.5Y36.83
X63.5Y34.29
X63.5Y27.94
X63.5Y25.4
X63.5Y22.86
X63.5Y10.16
X63.5Y7.62
X63.5Y5.08
X66.04Y64.77
X66.04Y62.23
X66.04Y59.69
X66.04Y39.37
X66.04Y36.83
X66.04Y34.29
X66.04Y27.94
X66.04Y25.4
X66.04Y22.86
X66.04Y20.32
X66.04Y17.78
X66.04Y15.24
X66.04Y12.7
X66.04Y10.16
X66.04Y7.62
X66.04Y5.08
X68.58Y64.77
X68.58Y62.23
X68.58Y59.69
X68.58Y57.15
X68.58Y52.07
X68.58Y41.91
X68.58Y39.37
X68.58Y36.83
X68.58Y34.29
X68.58Y27.94
X68.58Y25.4
X68.58Y22.86
X68.58Y20.32
X68.58Y17.78
X68.58Y15.24
X68.58Y12.7
X68.58Y10.16
X68.58Y7.62
X68.58Y5.08
X71.12Y64.77
X71.12Y62.23
X71.12Y59.69
X71.12Y57.15
X71.12Y54.61
X71.12Y52.07
X71.12Y49.53
X71.12Y46.99
X71.12Y44.45
X71.12Y41.91
X71.12Y39.37
X71.12Y36.83
X71.12Y34.29
X73.66Y64.77
X73.66Y62.23
X73.66Y59.69
X73.66Y57.15
X73.66Y54.61
X73.66Y52.07
X73.66Y49.53
X73.66Y46.99
X73.66Y44.45
X73.66Y41.91
X73.66Y39.37
X73.66Y36.83
X73.66Y34.29
X76.2Y64.77
X76.2Y62.23
X76.2Y59.69
X76.2Y57.15
X76.2Y54.61
X76.2Y52.07
X76.2Y49.53
X76.2Y46.99
X76.2Y44.45
X76.2Y41.91
X76.2Y39.37
X76.2Y36.83
X76.2Y34.29
T3
X10.795Y30.485
X10.795Y27.945
X10.795Y25.405
X10.795Y22.865
X10.795Y20.325
X10.795Y17.785
X10.795Y15.245
X14.605Y38.148
X14.605Y35.648
X18.415Y30.485
X18.415Y27.945
X18.415Y25.405
X18.415Y22.865
X18.415Y20.325
X18.415Y17.785
X18.415Y15.245
X21.59Y30.44
X21.59Y27.94
X39.37Y52.07
X39.37Y41.91
X42.545Y49.51
X42.545Y47.01
X42.545Y27.94
X42.545Y25.44
X71.755Y7.6
X71.755Y5.1
X79.395Y49.51
X79.395Y47.01
T4
X4.445Y58.415
X4.445Y55.875
X4.445Y53.335
X4.445Y50.795
X4.445Y48.255
X4.445Y45.715
X4.445Y43.175
X4.445Y40.635
X4.445Y38.095
X4.445Y35.555
X4.445Y33.015
X4.445Y30.475
X4.445Y27.935
X4.445Y25.395
X4.445Y22.855
X4.445Y20.315
X4.445Y17.775
X4.445Y15.235
X4.445Y12.695
X4.445Y10.155
X24.765Y58.42
X24.765Y55.88
X24.765Y53.34
X24.765Y50.8
X24.765Y48.26
X24.765Y45.72
X24.765Y43.18
X24.765Y40.64
X24.765Y38.1
X24.765Y35.56
X24.765Y33.02
X24.765Y30.48
X24.765Y27.94
X24.765Y25.4
X24.765Y22.86
X24.765Y20.32
X24.765Y17.78
X24.765Y15.24
X24.765Y12.7
X24.765Y10.16
T0
M30
