G04 #@! TF.GenerationSoftware,KiCad,Pcbnew,(6.0.10-0)*
G04 #@! TF.CreationDate,2023-01-31T11:03:09+09:00*
G04 #@! TF.ProjectId,MEZ68030FPU,4d455a36-3830-4333-9046-50552e6b6963,A*
G04 #@! TF.SameCoordinates,PX5f5e100PY68e7780*
G04 #@! TF.FileFunction,Soldermask,Bot*
G04 #@! TF.FilePolarity,Negative*
%FSLAX46Y46*%
G04 Gerber Fmt 4.6, Leading zero omitted, Abs format (unit mm)*
G04 Created by KiCad (PCBNEW (6.0.10-0)) date 2023-01-31 11:03:09*
%MOMM*%
%LPD*%
G01*
G04 APERTURE LIST*
%ADD10C,1.600000*%
%ADD11R,1.397000X1.397000*%
%ADD12C,1.397000*%
%ADD13O,1.600000X1.600000*%
%ADD14R,1.600000X1.600000*%
%ADD15R,1.700000X1.700000*%
%ADD16O,1.700000X1.700000*%
%ADD17C,0.605000*%
G04 APERTURE END LIST*
D10*
X42545000Y49510000D03*
X42545000Y47010000D03*
D11*
X45720000Y64770000D03*
D12*
X48260000Y64770000D03*
X50800000Y64770000D03*
X53340000Y64770000D03*
X55880000Y64770000D03*
X58420000Y64770000D03*
X60960000Y64770000D03*
X63500000Y64770000D03*
X66040000Y64770000D03*
X68580000Y64770000D03*
X71120000Y64770000D03*
X73660000Y64770000D03*
X76200000Y64770000D03*
X45720000Y62230000D03*
X48260000Y62230000D03*
X50800000Y62230000D03*
X53340000Y62230000D03*
X55880000Y62230000D03*
X58420000Y62230000D03*
X60960000Y62230000D03*
X63500000Y62230000D03*
X66040000Y62230000D03*
X68580000Y62230000D03*
X71120000Y62230000D03*
X73660000Y62230000D03*
X76200000Y62230000D03*
X45720000Y59690000D03*
X48260000Y59690000D03*
X50800000Y59690000D03*
X53340000Y59690000D03*
X55880000Y59690000D03*
X58420000Y59690000D03*
X60960000Y59690000D03*
X63500000Y59690000D03*
X66040000Y59690000D03*
X68580000Y59690000D03*
X71120000Y59690000D03*
X73660000Y59690000D03*
X76200000Y59690000D03*
X45720000Y57150000D03*
X48260000Y57150000D03*
X50800000Y57150000D03*
X53340000Y57150000D03*
X55880000Y57150000D03*
X68580000Y57150000D03*
X71120000Y57150000D03*
X73660000Y57150000D03*
X76200000Y57150000D03*
X45720000Y54610000D03*
X48260000Y54610000D03*
X50800000Y54610000D03*
X71120000Y54610000D03*
X73660000Y54610000D03*
X76200000Y54610000D03*
X45720000Y52070000D03*
X48260000Y52070000D03*
X50800000Y52070000D03*
X53340000Y52070000D03*
X68580000Y52070000D03*
X71120000Y52070000D03*
X73660000Y52070000D03*
X76200000Y52070000D03*
X45720000Y49530000D03*
X48260000Y49530000D03*
X50800000Y49530000D03*
X71120000Y49530000D03*
X73660000Y49530000D03*
X76200000Y49530000D03*
X45720000Y46990000D03*
X48260000Y46990000D03*
X50800000Y46990000D03*
X71120000Y46990000D03*
X73660000Y46990000D03*
X76200000Y46990000D03*
X45720000Y44450000D03*
X48260000Y44450000D03*
X50800000Y44450000D03*
X71120000Y44450000D03*
X73660000Y44450000D03*
X76200000Y44450000D03*
X45720000Y41910000D03*
X48260000Y41910000D03*
X50800000Y41910000D03*
X53340000Y41910000D03*
X55880000Y41910000D03*
X68580000Y41910000D03*
X71120000Y41910000D03*
X73660000Y41910000D03*
X76200000Y41910000D03*
X45720000Y39370000D03*
X48260000Y39370000D03*
X50800000Y39370000D03*
X53340000Y39370000D03*
X55880000Y39370000D03*
X58420000Y39370000D03*
X60960000Y39370000D03*
X63500000Y39370000D03*
X66040000Y39370000D03*
X68580000Y39370000D03*
X71120000Y39370000D03*
X73660000Y39370000D03*
X76200000Y39370000D03*
X45720000Y36830000D03*
X48260000Y36830000D03*
X50800000Y36830000D03*
X53340000Y36830000D03*
X55880000Y36830000D03*
X58420000Y36830000D03*
X60960000Y36830000D03*
X63500000Y36830000D03*
X66040000Y36830000D03*
X68580000Y36830000D03*
X71120000Y36830000D03*
X73660000Y36830000D03*
X76200000Y36830000D03*
X45720000Y34290000D03*
X48260000Y34290000D03*
X50800000Y34290000D03*
X53340000Y34290000D03*
X55880000Y34290000D03*
X58420000Y34290000D03*
X60960000Y34290000D03*
X63500000Y34290000D03*
X66040000Y34290000D03*
X68580000Y34290000D03*
X71120000Y34290000D03*
X73660000Y34290000D03*
X76200000Y34290000D03*
D10*
X71755000Y7600000D03*
X71755000Y5100000D03*
X39370000Y41910000D03*
D13*
X39370000Y52070000D03*
D11*
X45720000Y27940000D03*
D12*
X48260000Y27940000D03*
X50800000Y27940000D03*
X53340000Y27940000D03*
X55880000Y27940000D03*
X58420000Y27940000D03*
X60960000Y27940000D03*
X63500000Y27940000D03*
X66040000Y27940000D03*
X68580000Y27940000D03*
X45720000Y25400000D03*
X48260000Y25400000D03*
X50800000Y25400000D03*
X53340000Y25400000D03*
X55880000Y25400000D03*
X58420000Y25400000D03*
X60960000Y25400000D03*
X63500000Y25400000D03*
X66040000Y25400000D03*
X68580000Y25400000D03*
X45720000Y22860000D03*
X48260000Y22860000D03*
X50800000Y22860000D03*
X63500000Y22860000D03*
X66040000Y22860000D03*
X68580000Y22860000D03*
X45720000Y20320000D03*
X48260000Y20320000D03*
X66040000Y20320000D03*
X68580000Y20320000D03*
X45720000Y17780000D03*
X48260000Y17780000D03*
X66040000Y17780000D03*
X68580000Y17780000D03*
X45720000Y15240000D03*
X48260000Y15240000D03*
X66040000Y15240000D03*
X68580000Y15240000D03*
X45720000Y12700000D03*
X48260000Y12700000D03*
X66040000Y12700000D03*
X68580000Y12700000D03*
X45720000Y10160000D03*
X48260000Y10160000D03*
X50800000Y10160000D03*
X63500000Y10160000D03*
X66040000Y10160000D03*
X68580000Y10160000D03*
X45720000Y7620000D03*
X48260000Y7620000D03*
X50800000Y7620000D03*
X53340000Y7620000D03*
X55880000Y7620000D03*
X58420000Y7620000D03*
X60960000Y7620000D03*
X63500000Y7620000D03*
X66040000Y7620000D03*
X68580000Y7620000D03*
X45720000Y5080000D03*
X48260000Y5080000D03*
X50800000Y5080000D03*
X53340000Y5080000D03*
X55880000Y5080000D03*
X58420000Y5080000D03*
X60960000Y5080000D03*
X63500000Y5080000D03*
X66040000Y5080000D03*
X68580000Y5080000D03*
D10*
X42545000Y27940000D03*
X42545000Y25440000D03*
D14*
X10795000Y30485000D03*
D13*
X10795000Y27945000D03*
X10795000Y25405000D03*
X10795000Y22865000D03*
X10795000Y20325000D03*
X10795000Y17785000D03*
X10795000Y15245000D03*
X18415000Y15245000D03*
X18415000Y17785000D03*
X18415000Y20325000D03*
X18415000Y22865000D03*
X18415000Y25405000D03*
X18415000Y27945000D03*
X18415000Y30485000D03*
D10*
X21590000Y27940000D03*
X21590000Y30440000D03*
X79395000Y49510000D03*
X79395000Y47010000D03*
D14*
X14605000Y35647620D03*
D10*
X14605000Y38147620D03*
D15*
X24765000Y58420000D03*
D16*
X24765000Y55880000D03*
X24765000Y53340000D03*
X24765000Y50800000D03*
X24765000Y48260000D03*
X24765000Y45720000D03*
X24765000Y43180000D03*
X24765000Y40640000D03*
X24765000Y38100000D03*
X24765000Y35560000D03*
X24765000Y33020000D03*
X24765000Y30480000D03*
X24765000Y27940000D03*
X24765000Y25400000D03*
X24765000Y22860000D03*
X24765000Y20320000D03*
X24765000Y17780000D03*
X24765000Y15240000D03*
X24765000Y12700000D03*
X24765000Y10160000D03*
D15*
X4445000Y58415000D03*
D16*
X4445000Y55875000D03*
X4445000Y53335000D03*
X4445000Y50795000D03*
X4445000Y48255000D03*
X4445000Y45715000D03*
X4445000Y43175000D03*
X4445000Y40635000D03*
X4445000Y38095000D03*
X4445000Y35555000D03*
X4445000Y33015000D03*
X4445000Y30475000D03*
X4445000Y27935000D03*
X4445000Y25395000D03*
X4445000Y22855000D03*
X4445000Y20315000D03*
X4445000Y17775000D03*
X4445000Y15235000D03*
X4445000Y12695000D03*
X4445000Y10155000D03*
D17*
X81915000Y31115000D03*
X31115000Y20320000D03*
X7620000Y52070000D03*
X43180000Y34925000D03*
X27305000Y29210000D03*
X21590000Y45720000D03*
X31750000Y46355000D03*
X29210000Y17780000D03*
X27305000Y8255000D03*
X1270000Y61595000D03*
X50800000Y31115000D03*
X66040000Y57150000D03*
X58420000Y57150000D03*
X27305000Y34925000D03*
X39370000Y30480000D03*
X31750000Y47625000D03*
X43180000Y53340000D03*
X20955000Y20320000D03*
X53340000Y22860000D03*
X60960000Y22860000D03*
X56515000Y31115000D03*
X62865000Y16510000D03*
X58420000Y41910000D03*
X7620000Y33020000D03*
X74930000Y63500000D03*
X41275000Y69850000D03*
X29210000Y15240000D03*
X50800000Y16510000D03*
X81915000Y69850000D03*
X42545000Y20320000D03*
X47625000Y31115000D03*
X60960000Y10160000D03*
X31750000Y45085000D03*
X43180000Y55880000D03*
X30480000Y24765000D03*
X53340000Y10160000D03*
X1270000Y8255000D03*
X66040000Y41910000D03*
X37465000Y52070000D03*
X81915000Y1270000D03*
X30480000Y29210000D03*
X66040000Y48260000D03*
X55880000Y48260000D03*
X38100000Y34925000D03*
X40640000Y1270000D03*
X37465000Y20320000D03*
X27305000Y30480000D03*
X27305000Y31750000D03*
X21590000Y52070000D03*
X7620000Y45720000D03*
X42545000Y11430000D03*
X71379809Y9530809D03*
X27797243Y39225200D03*
X44575100Y37789700D03*
X27033700Y39225700D03*
X26425300Y11312300D03*
X44172900Y26924000D03*
X63522700Y13343800D03*
X63500000Y8816100D03*
X40767000Y26289000D03*
X64694146Y8021881D03*
X40259000Y24765000D03*
X40132000Y17802600D03*
X26289000Y48790600D03*
X39348700Y25662000D03*
X39363746Y24768688D03*
X39370000Y18542000D03*
X46662800Y35272200D03*
X27142500Y21554500D03*
X38481000Y24765000D03*
X27051000Y40287400D03*
X41852309Y17226000D03*
X39116000Y38354000D03*
X26416000Y22860000D03*
X39751000Y38862000D03*
X52806800Y32714252D03*
X23860400Y26519500D03*
X44162158Y25512358D03*
M02*
